<mxfile host="app.diagrams.net" modified="2021-03-18T18:55:04.956Z" agent="5.0 (Windows)" etag="iLrTlfeWc8lDRAhvcqHq" version="14.4.9" type="github">
  <diagram id="bEaLCMqU6W-kUg_yyZVl" name="Page-1">
    <mxGraphModel dx="1422" dy="763" grid="1" gridSize="10" guides="1" tooltips="1" connect="1" arrows="1" fold="1" page="1" pageScale="1" pageWidth="827" pageHeight="1169" math="0" shadow="0">
      <root>
        <mxCell id="0" />
        <mxCell id="1" parent="0" />
        <mxCell id="REbNqeMyFkPfm94GuG-5-15" value="Object" style="html=1;" vertex="1" parent="1">
          <mxGeometry x="230" y="180" width="240" height="320" as="geometry" />
        </mxCell>
        <mxCell id="REbNqeMyFkPfm94GuG-5-17" style="edgeStyle=orthogonalEdgeStyle;rounded=0;orthogonalLoop=1;jettySize=auto;html=1;" edge="1" parent="1" source="REbNqeMyFkPfm94GuG-5-14" target="REbNqeMyFkPfm94GuG-5-16">
          <mxGeometry relative="1" as="geometry" />
        </mxCell>
        <mxCell id="REbNqeMyFkPfm94GuG-5-14" value="Actor" style="shape=umlActor;verticalLabelPosition=bottom;verticalAlign=top;html=1;" vertex="1" parent="1">
          <mxGeometry x="110" y="300" width="30" height="60" as="geometry" />
        </mxCell>
        <mxCell id="REbNqeMyFkPfm94GuG-5-16" value="Use Case" style="ellipse;whiteSpace=wrap;html=1;" vertex="1" parent="1">
          <mxGeometry x="280" y="230" width="140" height="70" as="geometry" />
        </mxCell>
      </root>
    </mxGraphModel>
  </diagram>
</mxfile>
